
<svg width="102" height="83" viewBox="0 0 102 83" fill="none" xmlns="http://www.w3.org/2000/svg">
<path d="M12.6648 48.3921C13.1824 42.6782 13.8009 37.1793 15.2395 31.8149C15.8848 29.4016 16.7654 27.0689 18.2174 25.0254C20.2879 22.1146 23.0709 22.1953 24.8255 25.2405C25.3364 26.1345 25.8674 26.3967 26.8354 26.3362C28.3211 26.2354 29.8336 26.1614 31.3125 26.269C33.4973 26.4303 35.2787 26.3026 36.7576 24.1582C38.0953 22.2222 40.3339 22.5919 41.7455 24.5817C43.1505 26.5715 44.0849 28.81 44.7773 31.1292C45.1672 32.4468 45.7117 32.709 47.0562 32.3056C53.6037 30.336 60.2991 29.5024 67.0887 30.7057C77.9721 32.6418 85.2322 38.4767 87.1077 50.0122C88.1967 49.4206 88.6337 48.3989 89.3463 47.6661C92.0823 44.8831 94.8922 45.152 96.7879 48.54C99.1138 52.7011 99.8062 57.3799 100.653 61.9779C101.218 65.0433 101.52 68.1625 101.91 71.2614C102.791 78.1451 97.0231 82.4138 91.9344 82.3802C64.6014 82.1785 37.2685 82.286 9.93555 82.2793C3.50901 82.2793 -0.873939 77.2578 0.147853 70.9321C1.18309 64.4921 2.18472 58.0319 4.51064 51.881C4.63836 51.5516 4.76609 51.2222 4.90725 50.8928C6.86345 46.4158 8.39614 45.8847 12.6514 48.3854L12.6648 48.3921ZM23.5079 67.0936C34.3981 67.0734 45.2882 67.0667 56.1851 67.0466C56.696 67.0466 57.469 67.2953 57.5094 66.4214C57.6304 64.1492 58.995 62.6703 60.7092 61.3326C59.8824 60.5259 59.0622 59.8402 58.3765 59.0336C54.9414 54.9598 55.4927 48.5871 59.5328 45.7503C62.4301 43.7201 65.724 43.4042 69.1323 43.6865C69.8179 43.7403 70.4498 43.989 70.4162 44.8091C70.3759 45.8108 69.5961 45.8175 68.8566 45.7771C66.9273 45.6696 65.0115 45.7435 63.1427 46.2813C59.7008 47.2762 57.8791 49.9719 58.2623 53.528C58.6118 56.7144 60.4672 58.8184 63.1964 60.2839C63.7477 60.5797 64.4401 60.8015 64.3863 61.6149C64.3325 62.4216 63.6468 62.5561 63.0486 62.7779C61.8318 63.235 60.6823 63.8064 60.0773 65.05C59.4656 66.3071 59.4051 67.1407 61.3008 67.1205C67.9895 67.0398 74.6849 67.0398 81.3736 67.0734C83.0945 67.0802 84.0356 66.3474 84.365 64.7072C85.3868 59.6587 85.8305 54.5901 84.8625 49.4879C83.8272 44.0428 81.4274 39.4582 76.5671 36.3928C75.4176 35.6735 74.8731 35.734 74.5168 37.139C74.1673 38.5171 73.5354 39.8077 72.5674 40.8833C70.712 42.9471 68.5676 42.7454 67.1895 40.3388C66.1341 38.4969 65.8988 36.4264 65.8719 34.3694C65.8518 33.0316 65.4888 32.3258 64.0771 32.4871C62.7931 32.635 60.9714 31.4586 60.6554 33.9795C60.3932 36.0298 59.8689 38.0398 58.7328 39.801C56.9783 42.5235 54.2558 42.3824 52.7096 39.5254C51.9164 38.0667 51.5803 36.4667 51.4324 34.8332C51.3316 33.7308 50.8879 33.3476 49.7787 33.7039C48.4948 34.1207 47.1301 34.3223 45.8865 34.8198C44.542 35.3576 43.9572 34.9004 43.5001 33.6568C42.6396 31.3309 41.7792 28.9915 40.7036 26.7597C39.6415 24.5481 38.8012 24.5212 37.4365 26.5043C36.6702 27.6202 36.166 28.9646 34.3779 28.4739C33.988 28.3664 33.7796 28.6756 33.7057 29.0856C33.5107 30.1276 33.9006 31.8351 32.536 31.8552C31.3999 31.8687 31.3192 30.1612 31.0302 29.0856C30.9092 28.6352 30.7008 28.326 30.1764 28.3059C29.6588 28.2857 29.4101 28.5411 29.2958 29.0251C29.1883 29.5092 29.0874 30.0066 28.8858 30.457C28.6101 31.0822 28.4622 32.0031 27.6018 31.9628C26.7279 31.9225 26.7413 30.9813 26.4792 30.3494C26.2103 29.7108 26.7077 28.4672 25.5246 28.5411C23.9785 28.642 23.6625 27.7815 23.239 26.6118C22.513 24.622 21.3366 24.501 19.9921 26.1614C18.8023 27.6269 18.1838 29.3747 17.6595 31.1494C15.0714 39.9018 14.3723 48.8492 14.984 57.9109C15.1386 60.2436 15.4949 62.5897 16.6848 64.6736C17.2293 65.6214 17.7469 66.7104 19.1518 66.6836M50.982 80.229C64.4334 80.229 77.8847 80.229 91.3361 80.229C97.2248 80.229 100.512 76.6057 99.786 70.8514C99.3155 67.1272 98.7777 63.4031 98.1458 59.7058C97.534 56.1362 96.6534 52.6205 94.9258 49.387C94.2468 48.1165 93.2654 47.2426 91.8604 48.3652C89.474 50.2744 87.6522 52.6272 87.5245 55.8203C87.3968 59.0941 87.1077 62.3409 86.3616 65.5206C85.7767 68.0213 84.3381 69.191 81.8307 69.191C61.2604 69.2111 40.6969 69.1977 20.1266 69.2044C18.1905 69.2044 16.7251 68.3709 15.589 66.8449C14.5874 65.5071 14.0563 63.9745 13.6328 62.388C12.853 59.484 12.685 56.5194 12.6715 53.528C12.6648 51.713 11.0246 49.2795 9.58598 49.1249C7.40123 48.8829 7.33401 50.8861 6.66178 52.1768C6.3055 52.8625 6.11727 53.6355 5.88199 54.3817C4.18797 59.6655 3.42834 65.1509 2.33933 70.569C1.20998 76.1956 5.38454 80.3567 10.6347 80.2828C24.086 80.1013 37.5374 80.2223 50.9887 80.2223L50.982 80.229Z" fill="#735147"/>
<path d="M50.9548 80.2426C37.5035 80.2426 24.0521 80.1216 10.6008 80.3031C5.35065 80.377 1.17609 76.2092 2.30544 70.5894C3.39445 65.1712 4.15408 59.6858 5.8481 54.402C6.08338 53.6558 6.27161 52.8828 6.62789 52.1971C7.30012 50.9064 7.36735 48.9032 9.5521 49.1452C10.9907 49.3065 12.6309 51.7333 12.6376 53.5483C12.6511 56.5397 12.8191 59.5043 13.5989 62.4083C14.0224 63.9948 14.5602 65.5275 15.5551 66.8652C16.6912 68.3844 18.1567 69.2247 20.0927 69.2247C40.663 69.2247 61.2265 69.2247 81.7968 69.2113C84.3042 69.2113 85.7428 68.0416 86.3277 65.5409C87.0738 62.3545 87.3629 59.1076 87.4906 55.8406C87.6183 52.6475 89.4401 50.2947 91.8265 48.3855C93.2315 47.2629 94.213 48.1435 94.8919 49.4073C96.6195 52.6408 97.5002 56.1498 98.1119 59.7261C98.7438 63.4301 99.2816 67.1475 99.7521 70.8717C100.485 76.626 97.1909 80.2493 91.3022 80.2493C77.8508 80.2561 64.3995 80.2493 50.9481 80.2493L50.9548 80.2426Z" fill="#71C5D2"/>
<path d="M36.2061 39.2231C35.2852 39.1357 34.7474 38.6181 34.707 37.7442C34.6667 36.8703 35.1507 36.2384 36.065 36.198C37.0666 36.151 37.6649 36.7157 37.6514 37.7307C37.638 38.6248 37.0666 39.1021 36.2128 39.2231H36.2061Z" fill="#735147"/>
<path d="M23.3464 36.1846C24.3548 36.1846 24.9463 36.6753 25.0136 37.5358C25.0942 38.5105 24.5161 39.1827 23.5347 39.1894C22.6809 39.1894 22.1028 38.6517 22.0692 37.7374C22.0356 36.803 22.5935 36.3593 23.3464 36.1913V36.1846Z" fill="#735147"/>
<path d="M29.7128 38.5166C30.2506 38.5973 31.0102 38.4964 31.0236 39.2224C31.0438 40.0358 30.2506 40.4661 29.5985 40.4661C28.9532 40.4661 28.1129 40.0291 28.1868 39.2292C28.2608 38.4427 29.1279 38.6174 29.7128 38.5166Z" fill="#735147"/>
<path d="M57.8188 8.58277C54.7938 7.93743 52.7098 9.36929 50.8007 11.6952C51.9435 8.55589 51.083 6.11568 48.5286 3.93765C52.0511 5.10061 54.1215 3.1982 56.1046 1C55.1231 3.87715 55.4257 6.42491 57.8188 8.57605V8.58277Z" fill="#F8E56C" stroke="#714E44" stroke-width="2" stroke-linecap="round" stroke-linejoin="round"/>
<path d="M38.9223 18.2565C40.018 15.4533 39.1307 13.1409 36.825 10.9494C40.1928 11.7426 42.2566 10.0284 44.1523 7.89746C43.722 9.26209 43.4733 10.5998 43.796 12.0182C44.0514 13.1274 44.5825 14.0417 45.3623 14.8416C45.4833 14.9693 45.6917 15.0702 45.5841 15.2987C45.5102 15.4533 45.3488 15.3996 45.2278 15.3794C42.6129 14.9828 40.8046 16.3205 39.2181 18.1423C39.1576 18.2162 39.1173 18.3372 38.9223 18.2633V18.2565Z" fill="#F8E56C" stroke="#714E44" stroke-width="2" stroke-linecap="round" stroke-linejoin="round"/>
<path d="M60.0437 21.9202C57.0657 21.2345 55.0759 22.6865 53.2474 24.6494C53.6104 23.3722 53.7247 22.1084 53.3684 20.8379C53.0121 19.5741 52.1853 18.5926 51.1299 17.4767C54.4574 18.1288 56.5414 16.4818 58.4236 14.25C57.2943 17.1406 57.6707 19.7287 60.0437 21.9134V21.9202Z" fill="#F8E56C" stroke="#714E44" stroke-width="2" stroke-linecap="round" stroke-linejoin="round"/>
<path d="M29.5513 28.0235L29.4304 30.7326L30.7479 30.5511L30.3446 28.0235L29.0472 28.3798C29.148 28.837 29.2556 29.2941 29.3564 29.7512C29.4303 30.094 29.8471 30.3293 30.1832 30.2217C30.553 30.1007 30.7278 29.7646 30.6538 29.3949C30.5731 28.9983 30.3782 28.6554 30.1295 28.3395C29.9614 28.1311 29.6186 28.1042 29.3967 28.1983C29.1547 28.2992 28.98 28.5412 28.9867 28.8101C29.0068 29.6504 29.2488 30.4839 29.7127 31.183C30.0354 31.6738 30.7614 31.5864 30.9429 31.0217C31.1714 30.3091 31.3126 29.5697 31.3731 28.8235H30.0286C30.0286 28.9243 30.0152 29.0185 30.0085 29.1193C30.0085 29.1798 29.995 29.2336 29.9883 29.2941C29.9883 29.2336 30.0017 29.2201 29.9883 29.2941C29.9547 29.4957 29.9144 29.6974 29.8606 29.8991C29.8068 30.1007 29.753 30.2755 29.6858 30.457C29.6656 30.5041 29.6522 30.5511 29.632 30.5915C29.585 30.7125 29.6522 30.5511 29.6186 30.6184C29.5715 30.7192 29.5312 30.8133 29.4841 30.9141L30.7143 31.0755C30.553 30.5579 30.4185 30.0335 30.3244 29.5025C30.2975 29.3747 30.2774 29.2403 30.2572 29.1126C30.2572 29.0991 30.2236 28.8975 30.2437 29.0521C30.237 28.9781 30.2236 28.9109 30.2169 28.837C30.1832 28.5613 30.1631 28.2924 30.1496 28.0168C30.1295 27.6673 29.8539 27.3244 29.4774 27.3446C29.1278 27.358 28.785 27.6404 28.8052 28.0168C28.8657 29.1731 29.0673 30.3293 29.4102 31.4318C29.4909 31.6872 29.6992 31.8754 29.9681 31.9158C30.2169 31.9494 30.5194 31.8351 30.6404 31.5931C31.0706 30.7259 31.3193 29.7915 31.3664 28.8235C31.3798 28.4739 31.0437 28.1378 30.6941 28.1513C30.3043 28.1714 30.0555 28.4471 30.0219 28.8235C30.0152 28.9042 30.0085 28.9848 30.0017 29.0655C30.0017 29.1058 29.995 29.1462 29.9883 29.1865C29.995 29.1193 29.995 29.126 29.9883 29.1865C29.9614 29.3546 29.9345 29.5226 29.9009 29.6974C29.8337 30.0268 29.7463 30.3495 29.6455 30.6654L30.8756 30.5041C30.7815 30.3629 30.7009 30.2217 30.6269 30.0739C30.6068 30.0335 30.5866 29.9932 30.5664 29.9461C30.5194 29.852 30.6202 30.094 30.5664 29.926C30.5395 29.8453 30.5126 29.7714 30.4857 29.6907C30.4387 29.5293 30.3984 29.368 30.3715 29.2067C30.3715 29.1932 30.3513 29.0722 30.3648 29.1596C30.3782 29.2605 30.3648 29.1058 30.358 29.0857C30.3513 28.9916 30.3446 28.9042 30.3446 28.8101L29.1951 29.2873C29.0875 29.1596 29.222 29.3411 29.2421 29.368C29.269 29.4083 29.3093 29.4621 29.3161 29.5092C29.2892 29.3613 29.3161 29.5092 29.3228 29.5428C29.343 29.61 29.3631 29.6772 29.3766 29.7512L30.674 29.3949C30.5731 28.9378 30.4656 28.4807 30.3648 28.0235C30.2908 27.6807 29.874 27.4454 29.5379 27.553C29.1615 27.674 29.0068 28.0034 29.0673 28.3798L29.4707 30.9074C29.5245 31.2368 29.9076 31.4318 30.2101 31.3914C30.5463 31.3444 30.7748 31.0688 30.795 30.7326L30.916 28.0235C30.9294 27.674 30.5933 27.3379 30.2437 27.3513C29.8673 27.3715 29.5917 27.6471 29.5715 28.0235H29.5513Z" fill="#714E44"/>
<path d="M18.2709 40.5613H20.2809C20.6304 40.5613 20.9665 40.252 20.9531 39.889C20.9397 39.526 20.6573 39.2168 20.2809 39.2168H18.2709C17.9213 39.2168 17.5852 39.526 17.5987 39.889C17.6121 40.252 17.8944 40.5613 18.2709 40.5613Z" fill="#714E44"/>
<path d="M17.7671 42.7191L20.4224 42.4099C20.6039 42.3897 20.7585 42.3494 20.8997 42.215C21.014 42.1007 21.1013 41.9057 21.0946 41.7377C21.0812 41.4083 20.7988 41.0251 20.4224 41.0654L17.7671 41.3747C17.5856 41.3948 17.431 41.4352 17.2898 41.5696C17.1755 41.6839 17.0881 41.8788 17.0948 42.0469C17.1083 42.3763 17.3906 42.7595 17.7671 42.7191Z" fill="#714E44"/>
<path d="M18.9097 45.2931L20.6844 44.1099C20.8323 44.0158 20.9466 43.8814 20.9936 43.7066C21.0407 43.5453 21.0205 43.3301 20.9264 43.189C20.7382 42.8999 20.3214 42.7386 20.0054 42.947L18.2307 44.1301C18.0829 44.2242 17.9686 44.3587 17.9215 44.5334C17.8745 44.6948 17.8946 44.9099 17.9887 45.0511C18.177 45.3401 18.5938 45.5015 18.9097 45.2931Z" fill="#714E44"/>
<path d="M39.1841 40.4805C39.5404 40.4066 39.8966 40.3394 40.2529 40.2923L40.0714 40.3192C40.4277 40.2721 40.7907 40.2385 41.1537 40.2184C41.5167 40.1982 41.8461 39.9226 41.8259 39.5461C41.8125 39.1966 41.5302 38.8537 41.1537 38.8739C40.3739 38.921 39.5941 39.0218 38.8278 39.1898C38.485 39.2638 38.2497 39.6873 38.3572 40.0167C38.4715 40.3797 38.8143 40.5679 39.1841 40.4872V40.4805Z" fill="#714E44"/>
<path d="M38.5725 42.4968H40.8716C41.2211 42.4968 41.5572 42.1876 41.5438 41.8246C41.5304 41.4616 41.248 41.1523 40.8716 41.1523H38.5725C38.223 41.1523 37.8868 41.4616 37.9003 41.8246C37.9137 42.1876 38.1961 42.4968 38.5725 42.4968Z" fill="#714E44"/>
<path d="M38.6467 44.5005C38.8619 44.5139 39.077 44.5341 39.2854 44.561L39.1039 44.5341C39.5677 44.5946 40.0248 44.6954 40.4752 44.8366C40.8113 44.9374 41.2214 44.7156 41.3021 44.366C41.3827 44.003 41.1945 43.6535 40.8315 43.5392C40.1189 43.3173 39.3862 43.1963 38.64 43.1493C38.2905 43.1291 37.9544 43.472 37.9678 43.8215C37.988 44.2047 38.2636 44.4736 38.64 44.4937L38.6467 44.5005Z" fill="#714E44"/>
<path d="M29.007 39.8689C29.007 41.1058 29.007 42.3427 29.007 43.5796C29.007 43.9292 29.3162 44.2653 29.6792 44.2519C30.0422 44.2384 30.3514 43.9561 30.3514 43.5796C30.3514 42.3427 30.3514 41.1058 30.3514 39.8689C30.3514 39.5194 30.0422 39.1832 29.6792 39.1967C29.3162 39.2101 29.007 39.4925 29.007 39.8689Z" fill="#735147"/>
<path d="M25.3696 41.3205C25.1545 42.2885 25.5713 43.2431 26.3376 43.8481C27.2048 44.5405 28.3543 44.6548 29.4299 44.6346C30.5055 44.6145 31.5878 44.5069 32.4684 43.9153C33.2818 43.3708 33.8734 42.4902 33.8398 41.4819C33.8129 40.6214 32.4684 40.6147 32.4953 41.4819C32.5423 42.9675 30.6601 43.2498 29.5576 43.2834C28.8518 43.3036 28.0586 43.3171 27.4199 42.9608C26.9763 42.712 26.5528 42.2146 26.6738 41.6768C26.862 40.8365 25.5646 40.4735 25.3764 41.3205H25.3696Z" fill="#735147"/>
<path d="M75.0346 19.7895C73.8179 21.3693 75.1623 23.1776 76.8765 24.2061C78.5907 25.2346 80.6612 25.4363 82.4897 26.2295C85.2391 27.4328 87.323 30.0679 87.8406 33.0258C88.3582 35.9836 87.2961 39.1767 85.0979 41.227L85.4609 44.8503C88.3112 42.921 90.5363 40.0439 91.5513 36.7499C92.5664 33.456 92.3379 29.7789 90.8186 26.6933C90.1128 25.2615 89.1448 23.9641 88.1095 22.7406C86.4424 20.7643 84.5064 18.8887 82.0662 18.0552C79.626 17.2216 76.574 17.7056 75.0346 19.7828" fill="#714E44"/>
<path d="M74.1605 19.2784C72.5875 21.5438 74.4698 23.9907 76.4864 25.1402C78.8191 26.478 81.6895 26.4847 83.8407 28.2056C85.6826 29.6778 86.8993 31.9297 86.9598 34.3027C86.9934 35.58 86.7313 36.8706 86.1867 38.0269C85.9313 38.5647 85.6221 39.0957 85.2591 39.5663C84.8961 40.0369 84.1969 40.4873 84.1096 41.0923C84.0222 41.6973 84.2037 42.3695 84.2642 42.9543L84.4524 44.85C84.5196 45.5424 85.2792 46.1945 85.9716 45.7239C90.9125 42.3225 93.8636 36.5614 93.0233 30.5248C92.5797 27.3586 91.0335 24.6965 89.0168 22.2631C87.1884 20.0581 85.0103 17.9473 82.2206 17.0533C79.4308 16.1592 76.1369 16.7508 74.3219 19.0767C73.5286 20.085 74.947 21.5236 75.747 20.5018C77.0982 18.7742 79.4107 18.3439 81.461 18.9288C83.7802 19.5943 85.6019 21.3757 87.1346 23.1571C88.9295 25.2343 90.4016 27.4863 90.9394 30.2156C91.4302 32.7163 91.1277 35.3917 90.1328 37.7311C89.0572 40.2587 87.2153 42.43 84.9566 43.9829L86.4758 44.8568C86.3548 43.6467 86.2338 42.4434 86.1128 41.2334L85.817 41.946C89.5143 38.3899 90.005 32.528 86.8724 28.461C85.2994 26.4107 83.1819 25.2747 80.7349 24.5688C79.4308 24.1924 78.0662 23.8697 76.9503 23.0496C76.0495 22.3908 75.1554 21.3757 75.9083 20.3001C76.6612 19.2246 74.9067 18.2229 74.1673 19.2851L74.1605 19.2784Z" fill="#714E44"/>
<path d="M12.8463 57.1048C13.7606 58.9332 15.7033 59.955 17.6394 60.3584C19.73 60.7886 22.0021 60.6071 23.9919 61.4608C25.3431 62.039 26.8355 63.5918 26.0154 65.1716C25.5784 66.0118 24.2944 66.348 23.4542 66.5631C22.3584 66.8521 21.2358 66.9126 20.1064 66.8051C19.5619 66.758 19.0981 67.3025 19.0981 67.8134C19.0981 68.3983 19.5619 68.7747 20.1064 68.8218C22.0962 69.0033 24.1197 68.6537 25.928 67.7933C27.6018 66.9933 28.4488 65.4001 28.1665 63.5649C27.9043 61.8507 26.6741 60.4928 25.1347 59.7668C23.3399 58.9131 21.377 58.819 19.4342 58.5971C17.5923 58.3887 15.4949 57.8778 14.5941 56.0763C14.016 54.9133 12.2749 55.9351 12.8531 57.0913L12.8463 57.1048Z" fill="#735147"/>
<path d="M35.7825 67.1002C34.4784 66.9187 33.3087 65.9372 33.1541 64.5793C32.9995 63.2214 33.9877 61.8904 35.2716 61.5543C36.0985 61.3324 37.0194 61.4198 37.8665 61.2787C38.7135 61.1375 39.4865 60.8619 40.2461 60.519C41.8057 59.8065 43.1031 58.6569 44.0913 57.2722C44.4073 56.8285 44.172 56.1495 43.7283 55.8941C43.2241 55.5983 42.6662 55.8134 42.3502 56.2571C41.3284 57.6889 39.7823 58.7242 38.0883 59.1746C37.1203 59.43 36.1455 59.3762 35.1641 59.5309C34.2633 59.672 33.4499 60.1023 32.7709 60.7005C31.413 61.8971 30.7677 63.8869 31.3256 65.628C31.8836 67.3691 33.4163 68.7942 35.2447 69.0497C35.7825 69.1236 36.327 68.9219 36.4884 68.3438C36.6161 67.8732 36.327 67.1808 35.7825 67.1002Z" fill="#735147"/>
</svg>
