
<svg width="104" height="79" viewBox="0 0 104 79" fill="none" xmlns="http://www.w3.org/2000/svg">
<path d="M83.1579 43.4773C83.1579 45.4822 83.1579 47.5317 83.1579 49.5767C83.1579 58.042 83.1623 66.5073 83.1579 74.9726C83.1579 77.6548 82.5519 78.2919 79.9098 78.2919C60.7916 78.3053 41.6734 78.3053 22.5597 78.2919C19.7394 78.2919 19.1647 77.7038 19.1602 74.8835C19.1468 65.6029 19.1602 56.3178 19.1513 47.0371C19.1513 44.4307 19.0444 44.3639 16.7944 45.5579C12.3969 47.8881 8.02165 50.2673 3.60633 52.5619C1.69941 53.551 0.166749 52.9317 0.0108092 51.2653C-0.105032 50.0134 0.728132 49.4252 1.6504 48.855C7.21522 45.4243 12.7711 41.9713 18.3315 38.5362C19.2805 37.9525 19.9488 37.2352 20.5503 36.2194C21.6731 34.3169 23.7136 33.3055 25.8032 32.8823C27.0107 32.6372 27.1889 32.214 27.2156 31.1937C27.3938 24.4526 29.479 18.3754 33.7161 13.0913C34.3175 12.3383 34.4022 11.4918 34.6161 10.6319C35.3378 7.73143 37.3962 6.87599 39.7621 8.63588C40.8937 9.47796 41.8517 9.69182 43.2106 9.3933C47.5546 8.43539 51.9343 8.63143 56.2694 9.5136C57.2986 9.72301 58.0427 9.73637 58.8491 8.8943C60.0298 7.6646 61.5892 7.37946 63.1708 8.05222C64.5877 8.65371 65.0154 9.95914 64.9352 11.3671C64.8728 12.423 65.4743 12.9398 66.1471 13.568C71.2797 18.3353 74.247 24.1274 74.2693 31.2338C74.2693 32.2852 74.5544 32.557 75.6638 32.9001C77.9005 33.5951 80.4757 34.1342 81.34 36.8877C81.4648 37.2887 81.7232 37.4179 82.0752 37.5961C89.0969 41.1694 95.6999 45.4733 102.526 49.3852C103.791 50.1114 104.464 51.1228 103.635 52.4995C102.829 53.845 101.626 53.8228 100.351 53.0787C95.085 50.0089 89.8187 46.948 84.5479 43.8961C84.187 43.6867 83.8752 43.2857 83.1534 43.4684L83.1579 43.4773ZM50.5219 37.5605C50.5219 37.5605 50.5219 37.5293 50.5219 37.5159C56.0199 37.5159 61.5179 37.5159 67.0159 37.5159C69.4753 37.5159 72.3535 34.7001 72.4203 32.2051C72.6119 25.2546 70.1124 19.4492 64.8461 14.9002C63.7144 13.92 62.9302 13.0512 63.0995 11.3893C63.2644 9.77647 61.8431 8.9834 60.8317 9.89231C59.4461 11.1354 57.0981 11.1487 56.4833 13.3408C56.3273 13.8888 55.864 14.3923 55.1288 14.2319C54.5318 14.1027 54.358 13.5725 54.2199 13.0735C54.1041 12.6458 54.0551 12.2002 53.9971 11.7591C53.9258 11.171 53.6674 10.7745 53.0169 10.7968C52.4155 10.8146 52.411 11.3225 52.264 11.7324C51.8051 13.0066 51.8764 15.0027 50.1788 15.0294C48.214 15.0606 48.5303 12.9265 48.0803 11.6121C47.9021 11.0908 47.8086 10.6319 47.0957 10.6676C46.4853 10.6987 46.1422 10.9171 46.0487 11.5542C45.9729 12.0621 45.8348 12.5745 45.6343 13.0512C45.4115 13.5903 45.1665 14.2052 44.4581 14.2453C43.7452 14.2854 43.4734 13.6928 43.1615 13.1849C42.8229 12.6324 42.7472 11.4651 42.1858 11.5943C40.5239 11.9864 39.7754 10.7478 38.7061 10.0661C37.5344 9.31756 36.5586 9.57598 36.4651 10.9661C36.3492 12.7616 35.2977 13.9423 34.3309 15.2344C32.1166 18.1883 30.4458 21.4898 29.8755 25.0808C29.3007 28.6853 27.1532 32.7219 31.3146 35.7738C31.3681 35.8139 31.4082 35.8986 31.4171 35.9699C31.6309 37.5694 32.7314 37.5961 34.0235 37.5872C39.5215 37.5382 45.0195 37.5649 50.5174 37.5649L50.5219 37.5605ZM18.9954 40.2159C13.533 43.5886 8.27561 46.8322 2.91129 50.1426C3.62416 50.401 4.10534 50.303 4.59098 50.0445C9.1667 47.6074 13.738 45.1659 18.327 42.751C19.3429 42.2164 19.3473 41.4322 18.9954 40.2114V40.2159ZM83.492 40.2248C83.345 40.4654 83.1979 40.706 83.0509 40.9466C89.235 44.5599 95.4192 48.1688 101.603 51.7822L101.982 51.1495C95.8202 47.5094 89.6583 43.8693 83.492 40.2248ZM21.8245 37.3555H29.9913C27.6656 34.2055 25.0369 34.1743 21.8245 37.3555ZM71.5648 37.507C74.0153 37.507 76.1495 37.5159 78.2881 37.4981C78.6311 37.4981 79.099 37.5827 79.1925 37.106C79.2415 36.8654 79.1301 36.5001 78.9564 36.3263C76.898 34.21 73.7881 34.6021 71.5648 37.507Z" fill="#755348"/>
<path d="M50.5261 37.5604C45.0281 37.5604 39.5301 37.5336 34.0321 37.5826C32.7445 37.596 31.6396 37.5693 31.4257 35.9653C31.4168 35.8985 31.3767 35.8094 31.3232 35.7693C27.1663 32.7173 29.3138 28.6807 29.8841 25.0763C30.4544 21.4852 32.1297 18.1837 34.3396 15.2298C35.3108 13.9333 36.3579 12.7526 36.4737 10.9615C36.5628 9.57141 37.543 9.313 38.7148 10.0615C39.7841 10.7476 40.5326 11.9818 42.1945 11.5897C42.7514 11.4605 42.8271 12.6278 43.1702 13.1803C43.4821 13.6838 43.7539 14.2808 44.4667 14.2407C45.1751 14.2006 45.4202 13.5857 45.643 13.0466C45.839 12.5699 45.9771 12.0575 46.0573 11.5496C46.1553 10.9125 46.4939 10.6942 47.1043 10.663C47.8127 10.6273 47.9108 11.0863 48.089 11.6075C48.539 12.9219 48.2226 15.056 50.1875 15.0248C51.885 14.9981 51.8137 13.0021 52.2726 11.7278C52.4196 11.3179 52.4241 10.8145 53.0256 10.7922C53.6761 10.7699 53.9345 11.1665 54.0058 11.7546C54.0592 12.1957 54.1082 12.6412 54.2285 13.0689C54.3667 13.5679 54.5404 14.0937 55.1375 14.2273C55.8681 14.3877 56.336 13.8843 56.4919 13.3362C57.1067 11.1442 59.4548 11.1308 60.8404 9.88775C61.8518 8.97884 63.2775 9.77191 63.1082 11.3848C62.9344 13.0466 63.7186 13.9154 64.8547 14.8956C70.121 19.4446 72.6205 25.25 72.4289 32.2005C72.3621 34.6955 69.4839 37.5114 67.0245 37.5114C61.5265 37.5114 56.0285 37.5114 50.5306 37.5114C50.5306 37.5247 50.5306 37.5425 50.5306 37.5559L50.5261 37.5604ZM63.2018 25.8515C64.2131 25.3391 65.474 24.7377 66.6904 24.0649C67.1225 23.8243 67.1849 23.3387 66.8864 22.9109C66.5968 22.4921 66.1468 22.3986 65.7102 22.608C64.5874 23.156 63.4735 23.7307 62.3775 24.3367C61.9632 24.5639 61.7315 24.9515 61.9765 25.4461C62.1681 25.8248 62.529 25.8916 63.1973 25.856L63.2018 25.8515ZM38.091 30.2223C37.9975 29.6654 37.5697 29.2911 37.0262 29.5361C35.7519 30.1109 34.5935 30.9218 33.6356 31.9421C33.2168 32.3876 33.3772 32.9312 33.9742 33.1896C34.6648 33.4836 38.0999 31.0421 38.091 30.2223ZM66.628 32.4723C66.5255 31.5634 65.6834 31.2337 65.0463 30.8327C64.222 30.3114 63.5671 29.3 62.3864 29.5807C62.0122 29.6698 61.8384 30.0441 61.9008 30.454C61.9765 30.9797 65.0998 33.3188 65.7013 33.2965C66.2003 33.2787 66.5121 33.0203 66.6324 32.4723H66.628ZM38.091 25.0763C37.9796 24.1896 33.9965 22.2515 33.3905 22.7416C32.7757 23.2406 32.9406 23.8466 33.5331 24.1807C34.6158 24.7911 35.743 25.3436 36.897 25.8025C37.5118 26.0476 38.0598 25.8025 38.091 25.0718V25.0763ZM34.9589 28.5337C35.3287 28.5337 35.6985 28.5515 36.0683 28.5337C36.7054 28.498 37.5697 28.6807 37.5786 27.7094C37.5876 26.7738 36.7499 26.8317 36.095 26.8139C35.2796 26.7916 34.4688 26.8005 33.6534 26.8228C33.0876 26.8406 32.5886 27.05 32.5708 27.6916C32.5529 28.3599 33.0519 28.5248 33.6267 28.5292C34.0722 28.5292 34.5133 28.5292 34.9589 28.5381V28.5337ZM64.8369 28.5337C64.8369 28.5337 64.8369 28.5515 64.8369 28.5604C65.2023 28.5604 65.572 28.5693 65.9374 28.5604C66.5923 28.5426 67.4166 28.6183 67.3988 27.6827C67.3854 26.7961 66.5968 26.7738 65.9196 26.7738C65.1131 26.7738 64.3022 26.7827 63.4958 26.8183C62.8632 26.8451 62.2572 27.05 62.333 27.8119C62.3953 28.4312 62.9701 28.5337 63.5136 28.5292C63.9547 28.5292 64.3958 28.5292 64.8369 28.5292V28.5337Z" fill="#FDFDFD"/>
<path d="M18.9997 40.2158C19.3517 41.4321 19.3472 42.2208 18.3314 42.7554C13.7468 45.1702 9.17106 47.6074 4.59534 50.0489C4.1097 50.3073 3.62852 50.4054 2.91565 50.147C8.27997 46.8366 13.5374 43.5886 18.9997 40.2203V40.2158Z" fill="#ED6C02"/>
<path d="M83.4964 40.2246C89.6582 43.8647 95.8201 47.5048 101.986 51.1493L101.608 51.782C95.4235 48.1686 89.2394 44.5597 83.0553 40.9464C83.2023 40.7058 83.3494 40.4652 83.4964 40.2246Z" fill="#ED6C02"/>
<path d="M21.8333 37.3556C25.0456 34.1745 27.6698 34.2057 30 37.3556H21.8333Z" fill="#FDFDFD"/>
<path d="M71.5739 37.5064C73.8016 34.6059 76.907 34.2094 78.9654 36.3257C79.1392 36.5039 79.2461 36.8648 79.2015 37.1054C79.108 37.5777 78.6357 37.493 78.2971 37.4975C76.1629 37.5109 74.0288 37.5064 71.5739 37.5064Z" fill="#FDFDFD"/>
<path d="M63.2019 25.8518C62.5336 25.8874 62.1683 25.8206 61.9811 25.4419C61.7316 24.9473 61.9678 24.5597 62.3821 24.3325C63.4782 23.7265 64.5876 23.1518 65.7148 22.6038C66.147 22.3899 66.597 22.4879 66.891 22.9067C67.1895 23.3345 67.1272 23.8246 66.695 24.0607C65.4786 24.7379 64.2178 25.3394 63.2064 25.8473L63.2019 25.8518Z" fill="#755348"/>
<path d="M38.091 30.2226C38.0999 31.0424 34.6648 33.484 33.9742 33.1899C33.3772 32.9315 33.2168 32.3879 33.6356 31.9424C34.5935 30.9221 35.7475 30.1112 37.0262 29.5365C37.5697 29.2914 37.9975 29.6657 38.091 30.2226Z" fill="#755348"/>
<path d="M66.6235 32.4721C66.5032 33.0157 66.1913 33.2741 65.6923 33.2964C65.0908 33.3186 61.9676 30.9795 61.8919 30.4538C61.8339 30.0439 62.0032 29.6697 62.3775 29.5805C63.5626 29.2999 64.2131 30.3112 65.0374 30.8325C65.6745 31.2335 66.5166 31.5632 66.6191 32.4721H66.6235Z" fill="#755348"/>
<path d="M38.0866 25.0757C38.0554 25.802 37.5074 26.047 36.8926 25.8064C35.7386 25.3475 34.6114 24.795 33.5287 24.1846C32.9362 23.8505 32.7758 23.2446 33.3862 22.7455C33.9921 22.251 37.9752 24.1891 38.0866 25.0802V25.0757Z" fill="#755348"/>
<path d="M34.9545 28.529C34.5089 28.529 34.0679 28.529 33.6223 28.529C33.052 28.529 32.5486 28.3597 32.5664 27.6914C32.5842 27.0498 33.0832 26.8404 33.649 26.8226C34.4644 26.8003 35.2797 26.7869 36.0906 26.8137C36.7456 26.8315 37.5832 26.778 37.5743 27.7092C37.5654 28.6805 36.701 28.4978 36.0639 28.5335C35.6941 28.5557 35.3243 28.5335 34.9545 28.5335V28.529Z" fill="#755348"/>
<path d="M64.8328 28.5289C64.3917 28.5289 63.9506 28.5289 63.5095 28.5289C62.9659 28.5289 62.3912 28.4309 62.3288 27.8116C62.2531 27.0497 62.859 26.8447 63.4917 26.818C64.2981 26.7824 65.109 26.7734 65.9154 26.7734C66.5927 26.7734 67.3813 26.7957 67.3946 27.6823C67.408 28.618 66.5882 28.5422 65.9332 28.5601C65.5679 28.569 65.1981 28.5601 64.8328 28.5601C64.8328 28.5511 64.8328 28.5422 64.8328 28.5333V28.5289Z" fill="#755348"/>
<path d="M57.3297 20.1088C57.2406 20.8841 56.8129 21.3029 56.0243 21.2806C55.2357 21.2583 54.7857 20.7994 54.8124 20.0286C54.8391 19.2623 55.3203 18.8301 56.1089 18.8524C56.9064 18.8702 57.2762 19.3514 57.3342 20.1133L57.3297 20.1088Z" fill="#755348"/>
<path d="M44.5383 20.0991C44.4448 20.9457 43.9859 21.311 43.2151 21.2665C42.4309 21.2219 42.0032 20.7407 42.0611 19.9922C42.119 19.2526 42.6002 18.816 43.3844 18.8605C44.1864 18.9051 44.5071 19.4086 44.5383 20.0991Z" fill="#755348"/>
<path d="M81.8083 3.17999L79.4565 1.69727L74.3668 9.77025L76.7186 11.253L81.8083 3.17999Z" fill="#F8E468" stroke="#714E44" stroke-width="2" stroke-linejoin="round"/>
<path d="M88.3219 10.08L86.678 7.83789L78.9817 13.4811L80.6256 15.7231L88.3219 10.08Z" fill="#F8E468" stroke="#714E44" stroke-width="2" stroke-linejoin="round"/>
<path d="M48.0489 23.5086C47.2692 24.5512 46.5964 25.665 46.0351 26.8368C45.7321 27.4739 46.1064 28.1155 46.8059 28.1779C48.686 28.3383 50.5662 28.414 52.4553 28.3962C53.1058 28.3917 53.6004 27.6343 53.2261 27.0551C52.3707 25.7363 51.5197 24.413 50.6642 23.0942C50.4103 22.7022 49.8623 22.5061 49.4435 22.7734C49.0514 23.0274 48.8509 23.5754 49.1227 23.9942C49.9781 25.313 50.8291 26.6363 51.6845 27.9551L52.4553 26.614C50.5707 26.6274 48.686 26.5561 46.8059 26.3957L47.5766 27.7368C48.138 26.565 48.8108 25.4512 49.5905 24.4086C49.8712 24.0343 49.6618 23.3972 49.2697 23.1878C48.8019 22.9428 48.3474 23.1076 48.0489 23.5086Z" fill="#714E44"/>
<path d="M49.417 22.0962C49.417 22.0962 49.3991 22.0828 49.3902 22.0739L49.5684 22.212C49.5417 22.1897 49.5194 22.1674 49.4971 22.1407L49.6353 22.3189C49.6174 22.2922 49.5996 22.261 49.5863 22.2298L49.6754 22.4437C49.6531 22.3947 49.6442 22.3457 49.6353 22.2967L49.6665 22.5328C49.662 22.4793 49.662 22.4259 49.6665 22.3724L49.6353 22.6085C49.6442 22.5506 49.6575 22.4927 49.6798 22.4392L49.5907 22.6531C49.6174 22.5907 49.6531 22.5372 49.6932 22.4838L49.5551 22.662C49.6174 22.5863 49.6887 22.5194 49.7689 22.457L49.5907 22.5952C49.7021 22.5105 49.8268 22.4214 49.9605 22.3679L49.7466 22.457C49.7466 22.457 49.7868 22.4437 49.8135 22.4392L49.5773 22.4704C49.5773 22.4704 49.6085 22.4704 49.6219 22.4704L49.3858 22.4392C49.3858 22.4392 49.408 22.4437 49.417 22.4481L49.2031 22.359C49.2031 22.359 49.2298 22.3724 49.2476 22.3813L49.0694 22.2432C49.0694 22.2432 49.1006 22.2744 49.1184 22.2922L48.9803 22.114C49.0026 22.1452 49.016 22.1764 49.0338 22.2075L48.9447 21.9937C49.0338 22.2075 49.0828 22.4437 49.114 22.6709L49.0828 22.4348C49.1051 22.5907 49.114 22.7467 49.1095 22.907C49.1095 23.1343 49.212 23.3793 49.3724 23.5353C49.5328 23.6912 49.7823 23.807 50.0006 23.7981C50.2189 23.7892 50.4684 23.7135 50.6288 23.5353C50.7892 23.357 50.8872 23.1476 50.8917 22.907C50.8917 22.564 50.8516 22.2165 50.7714 21.8823C50.7224 21.6818 50.6556 21.4947 50.5709 21.3076C50.5219 21.2006 50.4462 21.1071 50.3704 21.0179C50.3125 20.9511 50.21 20.8798 50.1521 20.8442C50.1432 20.8397 50.1387 20.8353 50.1298 20.8308C50.063 20.7952 49.9694 20.7506 49.8937 20.7283C49.5551 20.6303 49.2209 20.7283 48.9269 20.9021C48.7665 21.0001 48.6194 21.1115 48.4724 21.2274C48.3254 21.3432 48.214 21.4947 48.116 21.6462C48.0491 21.7486 48.0046 21.8645 47.9645 21.9759C47.9467 22.0249 47.9333 22.0694 47.9244 22.1229C47.8843 22.3769 47.862 22.6308 47.9511 22.8803C47.9912 22.9917 48.0358 23.112 48.1026 23.21C48.2318 23.3927 48.3343 23.4952 48.5214 23.6244C48.6239 23.6912 48.7353 23.7268 48.8511 23.7313C48.9714 23.758 49.0873 23.7536 49.2075 23.7135C49.4125 23.6556 49.6397 23.4952 49.7422 23.3036C49.8536 23.0986 49.907 22.8447 49.8313 22.6174L49.7422 22.4036C49.662 22.2699 49.5551 22.163 49.4214 22.0828L49.417 22.0962Z" fill="#714E44"/>
<path d="M80.9302 40.8797C81.594 39.7926 80.1861 39.7213 78.4262 39.7258C60.012 39.7659 41.5977 39.7926 23.1835 39.8238C20.8399 39.6099 21.183 40.4074 21.183 41.0134C21.1964 52.2143 21.2587 63.4108 21.2276 74.6117C21.2276 75.6899 21.8513 76.1221 24.333 76.1176C42.1413 76.0775 59.9541 76.0864 77.7624 76.1132C80.0213 76.1132 81.0772 75.8592 81.0683 74.6874C80.9658 63.4197 80.9614 52.1519 80.9257 40.8842L80.9302 40.8797Z" fill="#ED6C02"/>
<path d="M50.629 67.4078C55.693 67.4078 59.7982 63.3026 59.7982 58.2386C59.7982 53.1745 55.693 49.0693 50.629 49.0693C45.5649 49.0693 41.4597 53.1745 41.4597 58.2386C41.4597 63.3026 45.5649 67.4078 50.629 67.4078Z" fill="#F8E468" stroke="#714E44" stroke-width="2" stroke-linejoin="round"/>
<path d="M49.5151 54.2554V58.243C49.5151 58.8267 50.0275 59.3836 50.629 59.3569C51.2305 59.3301 51.7428 58.8668 51.7428 58.243V54.2554C51.7428 53.6717 51.2305 53.1148 50.629 53.1416C50.0275 53.1683 49.5151 53.6316 49.5151 54.2554Z" fill="#714E44"/>
<path d="M50.6291 62.6808C52.0637 62.6808 52.0637 60.4531 50.6291 60.4531C49.1944 60.4531 49.1944 62.6808 50.6291 62.6808Z" fill="#714E44"/>
</svg>
