
<svg width="95" height="79" viewBox="0 0 95 79" fill="none" xmlns="http://www.w3.org/2000/svg">
<path d="M81.1307 45.0605C83.6632 42.528 88.3377 43.2399 90.0764 47.0324C92.59 52.5069 93.3019 58.4224 94.1461 64.2938C94.5115 66.8389 94.8139 69.3966 94.9462 71.9607C95.1603 75.9799 92.4451 78.777 88.4511 78.777C61.0974 78.7833 33.7499 78.7896 6.39622 78.777C2.52185 78.777 -0.376061 75.8161 0.0397254 72.0426C0.864999 64.4954 2.15646 57.0176 4.56928 49.798C5.41345 47.2592 6.28282 44.6133 8.88464 43.158C9.25003 42.9501 9.28783 42.6603 9.17443 42.3264C8.58855 40.6066 8.74604 38.8237 8.85944 37.0409C5.67174 37.5386 4.31729 35.9321 5.03546 32.5555C5.87334 28.6496 8.01527 25.3926 10.4974 22.3624C11.9148 20.6299 13.4394 18.9794 14.9576 17.3288C20.6086 11.2054 31.2363 11.6212 36.6478 17.9336C39.3505 21.0835 42.4122 23.9121 44.3777 27.6416C45.562 29.8906 46.5133 32.1964 46.2424 34.8045C46.0912 36.2534 45.4928 37.3622 43.754 37.2299C43.1996 37.1858 42.45 36.8645 42.62 37.904C42.7397 38.6473 42.0972 39.7624 43.4516 39.9766C45.2723 40.2727 47.0992 40.5436 48.9387 40.7515C54.3881 41.3689 59.8689 41.1862 65.3308 41.9358C67.7751 42.2697 69.7218 42.6162 71.9834 43.0572L81.1244 45.0542L81.1307 45.0605ZM47.5528 77.0761C55.5535 77.0761 63.548 77.0761 71.5487 77.0761C77.0988 77.0761 82.6553 77.095 88.2054 77.0635C91.286 77.0446 93.4216 74.9531 93.1822 72.1434C92.5711 65.1128 91.8026 58.1011 89.8055 51.291C89.2259 49.3192 88.5015 47.4167 87.2541 45.7472C86.5863 44.859 85.7421 44.4747 84.6586 44.7897C82.6112 45.3944 80.6456 49.5208 81.4583 51.5304C82.5545 54.233 82.8505 56.9924 82.3025 59.8714C81.5969 63.5693 79.6565 65.2325 75.8956 65.2388C68.1594 65.2388 60.4296 65.2388 52.6934 65.2388C41.3223 65.2388 29.9575 65.2451 18.5863 65.2388C15.3104 65.2388 13.4079 63.9221 12.3747 61.0179C11.9337 59.7706 11.6881 58.4791 11.6188 57.1436C11.4676 54.1637 11.6188 51.2028 12.2424 48.2797C12.633 46.4465 11.1463 45.5582 10.1068 44.8841C9.16813 44.2731 8.49405 45.6779 7.99637 46.4843C7.51759 47.2655 7.1396 48.1222 6.80571 48.979C3.9771 56.2301 2.92503 63.8906 1.81627 71.5197C1.31228 74.9783 3.44792 77.0635 7.0892 77.0698C20.5708 77.0824 34.0586 77.0698 47.5402 77.0761H47.5528ZM35.7344 62.889C35.7785 62.5047 35.7029 62.0448 35.8919 61.7424C36.2824 61.1124 36.1565 59.8462 37.4353 60.1485C38.5756 60.4194 37.996 61.2951 37.8952 61.9314C37.7188 63.1095 38.248 63.393 39.3379 63.3867C43.7603 63.3426 48.1891 63.3677 52.6178 63.3677C55.1692 63.3677 55.7047 62.9079 56.0386 60.4132C56.4922 57.0302 55.7299 54.1133 52.7753 52.0659C52.2524 51.7068 51.7295 51.2973 52.1453 50.6359C52.6493 49.8421 53.2856 50.2957 53.8463 50.6674C54.1172 50.8501 54.3692 51.0705 54.6149 51.291C57.96 54.2078 58.3317 57.9121 57.4813 61.9629C57.3805 62.4354 56.782 63.1599 57.8467 63.3426C58.6656 63.4811 59.2074 63.311 59.2641 62.2653C59.3397 60.9171 59.9193 59.7013 60.8202 58.6933C61.4186 58.0192 61.4123 57.5845 60.8076 56.879C57.9034 53.4771 57.5884 49.5082 58.4199 45.3188C58.5396 44.7141 58.6467 44.0148 59.4153 44.0841C60.3981 44.1786 60.1776 45.0101 60.0705 45.6275C59.7555 47.4608 59.6295 49.2751 59.9571 51.1335C60.2973 53.0865 61.1414 54.737 62.5085 56.1608C63.6236 57.32 64.7449 56.0537 65.8663 56.2175C66.5719 56.3246 67.5231 56.1419 67.542 57.1372C67.5609 58.2082 66.5782 57.9814 65.8915 58.0129C64.1087 58.0822 62.7038 58.7878 61.7966 60.3564C61.3304 61.1628 60.921 62.0133 61.1162 62.9646C61.217 63.4496 61.7399 63.3992 62.1179 63.3488C63.485 63.1599 62.5652 61.9188 63.0314 61.2825C63.3275 60.8793 63.3401 60.2431 63.9764 60.136C64.5811 60.0352 64.7071 60.4257 64.852 60.9297C65.0725 61.692 65.4694 61.4211 65.7529 60.936C66.0742 60.3942 66.4144 59.8588 67.1326 60.2116C67.8444 60.5643 67.5987 61.2258 67.4538 61.7865C67.12 63.0717 67.6932 63.4118 68.8965 63.3803C71.2715 63.3237 73.6528 63.3677 76.0279 63.3615C78.8565 63.3551 80.2109 62.1645 80.6456 59.317C81.4898 53.8236 79.203 49.3192 74.2765 46.6229C69.936 44.2542 65.1985 43.4919 60.3666 43.1454C54.7094 42.7359 49.008 42.8115 43.4075 41.7216C42.5067 41.5453 42.1287 41.8413 41.7381 42.6099C40.5663 44.903 38.7961 46.6733 36.5533 47.9143C29.7118 51.6816 22.6623 52.1415 15.4238 49.0924C14.838 48.8467 14.1387 48.0655 13.8741 49.42C13.1496 53.1432 12.8031 56.8664 14.1261 60.5391C14.7749 62.3409 16.0034 63.3615 17.9815 63.3552C21.4149 63.3552 24.8546 63.3551 28.288 63.3615C28.9873 63.3615 29.5165 63.3488 29.6803 62.4228C30.1023 60.0667 31.8033 58.8634 33.9137 58.1641C37.2211 57.068 40.6482 56.9168 44.1005 57.0239C44.7116 57.0428 45.392 57.1184 45.3794 57.9184C45.3668 58.7752 44.636 58.7122 44.0564 58.687C41.8704 58.5736 39.6906 58.7563 37.5361 59.0461C34.8587 59.4052 34.5815 59.9911 35.747 62.8701L35.7344 62.889ZM24.7727 49.3192C27.6202 49.3381 30.9528 48.6073 34.0145 47.2214C40.4403 44.3046 42.1917 40.2475 39.7851 33.6201C38.3173 29.5882 36.862 25.5501 35.9801 21.3607C35.4131 18.6518 33.7814 17.1021 31.4694 16.0311C29.0188 14.8971 26.4107 14.5128 23.7396 14.7333C19.21 15.1113 16.2113 17.6879 15.2159 22.06C14.0883 27.0179 11.8644 31.642 10.7683 36.6062C9.78551 41.0539 11.2975 44.5125 15.1592 46.8875C18.0067 48.6325 21.144 49.2373 24.779 49.3192H24.7727ZM32.5089 63.3615C33.2082 63.4622 33.5294 63.1221 33.4664 62.3661C33.4286 61.9377 33.605 61.3203 32.931 61.3329C32.1498 61.3518 31.6017 61.7928 31.5387 62.6496C31.4946 63.3047 31.9545 63.3615 32.5026 63.3615H32.5089Z" fill="#714E44"/>
<path d="M47.5527 77.0769C34.0712 77.0769 20.5833 77.0832 7.10173 77.0769C3.46045 77.0769 1.32482 74.9853 1.8288 71.5268C2.94387 63.8977 3.98963 56.2435 6.81824 48.9861C7.15213 48.1293 7.53012 47.2725 8.0089 46.4914C8.50659 45.685 9.18066 44.2801 10.1193 44.8912C11.1651 45.5716 12.6518 46.4536 12.255 48.2868C11.6313 51.2099 11.4801 54.1645 11.6313 57.1506C11.7006 58.4799 11.94 59.7713 12.3873 61.025C13.4141 63.9292 15.323 65.2396 18.5989 65.2459C29.97 65.2585 41.3348 65.2459 52.706 65.2459C60.4421 65.2459 68.172 65.2459 75.9081 65.2459C79.6691 65.2459 81.6094 63.5764 82.315 59.8784C82.8631 57.0057 82.567 54.2401 81.4708 51.5375C80.6581 49.5279 82.6174 45.4078 84.6711 44.7967C85.7547 44.4754 86.5989 44.8597 87.2666 45.7543C88.514 47.4237 89.2385 49.32 89.8181 51.2981C91.8151 58.1082 92.5837 65.1199 93.1947 72.1504C93.4404 74.9538 91.2985 77.0517 88.2179 77.0706C82.6678 77.1021 77.1114 77.0832 71.5612 77.0832C63.5605 77.0832 55.5661 77.0832 47.5653 77.0832L47.5527 77.0769Z" fill="#71C5D2"/>
<path d="M34.216 63.525C28.1745 63.695 31.7717 59.7136 36.2634 58.9891C38.4117 58.6426 41.8954 58.3024 44.0815 58.4221C44.6611 58.4536 45.354 58.8001 45.3666 57.937C45.3792 57.1307 44.6989 57.0551 44.0878 57.0425C40.6418 56.9354 37.2084 57.0866 33.901 58.1827C31.7906 58.882 30.0833 60.0853 29.6675 62.4414C29.5037 63.3738 28.9746 63.3864 28.2753 63.3801C24.8419 63.3675 21.4022 63.3675 17.9688 63.3738C15.9844 63.3738 14.7622 62.3595 14.1133 60.5578C12.7967 56.8787 13.1432 53.1618 13.8614 49.4386C14.1259 48.0842 14.8252 48.8653 15.4111 49.111C22.6496 52.1664 29.699 51.7002 36.5406 47.933C38.7896 46.6982 40.5599 44.9217 41.7254 42.6285C42.1159 41.8663 42.5002 41.5639 43.3948 41.7403C48.9953 42.8301 54.6966 42.7482 60.3538 43.164C65.1858 43.5105 69.9232 44.2728 74.2638 46.6415C79.1902 49.3315 81.4771 53.8359 80.6329 59.3356C80.1982 62.1831 78.8438 63.3675 76.0151 63.3801C73.6401 63.3801 71.2588 63.3423 68.8838 63.399C67.6868 63.4305 67.1072 63.0903 67.4411 61.8051C67.586 61.2444 67.8317 60.5829 67.1198 60.2302C66.4017 59.8774 66.0615 60.4066 65.7402 60.9546C65.4567 61.4334 65.0598 61.7043 64.8393 60.9483C64.6944 60.4444 64.5684 60.0538 63.9636 60.1546C63.3274 60.2617 63.4219 60.69 63.2707 61.1688C62.9872 62.0697 63.466 63.1848 62.0989 63.3738C61.7209 63.4242 61.198 63.4746 61.0972 62.9895C60.9019 62.0382 61.3051 61.1877 61.7776 60.3814C62.6911 58.8127 64.0959 58.1071 65.8725 58.0378C66.5592 58.0126 67.5482 58.2331 67.523 57.1622C67.5041 56.1668 66.5528 56.3495 65.8473 56.2424C64.7259 56.0786 63.6045 57.3449 62.4895 56.1857C61.1224 54.7619 60.2783 53.1114 59.9381 51.1585C59.6168 49.3063 59.7428 47.4857 60.0515 45.6524C60.1586 45.0288 60.3791 44.1972 59.3963 44.109C58.634 44.0397 58.5206 44.739 58.4009 45.3437C57.5756 49.5331 57.8906 53.5083 60.7885 56.9039C61.3933 57.6094 61.4059 58.0504 60.8011 58.7182C59.9066 59.7199 59.3207 60.942 59.2451 62.2902C59.1821 63.336 58.6466 63.5061 57.8276 63.3675C56.763 63.1848 57.3677 62.4603 57.4622 61.9878C58.3127 57.937 57.941 54.2328 54.5958 51.316C54.3501 51.1018 54.0981 50.875 53.8273 50.6923C53.2729 50.3269 52.6303 49.867 52.1263 50.6608C51.7105 51.3159 52.2334 51.7254 52.7563 52.0908C55.7109 54.1383 56.4795 57.0551 56.0196 60.4381C55.6794 62.9391 55.1502 63.3927 52.5988 63.3927C48.17 63.3927 43.7476 63.3675 39.3188 63.4116" fill="#FDFDFD"/>
<path d="M24.7727 49.3192C21.1377 49.2373 18.0004 48.6325 15.1529 46.8874C11.2911 44.5187 9.77917 41.0538 10.7619 36.6062C11.8581 31.6419 14.0819 27.0242 15.2096 22.0599C16.205 17.6816 19.2037 15.1113 23.7332 14.7333C26.398 14.5128 29.0124 14.8971 31.4631 16.031C33.7751 17.102 35.4067 18.6517 35.9737 21.3607C36.8557 25.55 38.3109 29.5882 39.7788 33.6201C42.1916 40.2474 40.434 44.3045 34.0082 47.2213C30.9465 48.6136 27.6202 49.3381 24.7664 49.3192H24.7727ZM27.4438 34.2689C27.1981 33.1287 26.2153 33.198 25.4342 33.1539C24.4388 33.0972 23.0339 32.8515 22.8009 34.124C22.5993 35.2076 23.8088 35.7242 24.779 35.888C26.0515 36.1085 26.8327 35.3021 27.4438 34.2689Z" fill="#FDFDFD"/>
<path d="M32.5089 63.3617C31.9545 63.3617 31.4946 63.2987 31.545 62.6499C31.608 61.7994 32.1561 61.3521 32.9373 61.3332C33.6114 61.3206 33.435 61.938 33.4728 62.3664C33.5358 63.1223 33.2145 63.4625 32.5152 63.3617H32.5089Z" fill="#FDFDFD"/>
<path d="M27.4374 34.2694C26.8263 35.3026 26.0452 36.1153 24.7726 35.8885C23.8024 35.7184 22.5929 35.2081 22.7945 34.1245C23.0339 32.852 24.4387 33.104 25.4278 33.1544C26.2089 33.1985 27.1917 33.1229 27.4374 34.2694Z" fill="#714E44"/>
<path d="M20.0732 28.4353C20.0543 29.0464 19.8149 29.3992 19.2857 29.4307C18.6809 29.4685 18.2966 29.1598 18.2966 28.5298C18.2966 27.9062 18.662 27.5849 19.2794 27.6164C19.8275 27.6479 20.0228 28.0322 20.0732 28.4291V28.4353Z" fill="#714E44"/>
<path d="M33.1138 28.4363C33.0571 29.1419 32.7232 29.438 32.2003 29.438C31.6648 29.438 31.3183 29.0978 31.312 28.5686C31.312 27.9512 31.6585 27.5732 32.3137 27.6236C32.8807 27.6677 33.0571 28.0835 33.1138 28.4363Z" fill="#714E44"/>
<path d="M60.2783 8.10617C57.4434 7.50139 55.4905 8.84324 53.7014 11.023C54.7723 8.08097 53.9659 5.79415 51.572 3.75301C54.8731 4.84288 56.8135 3.06003 58.6719 1C57.7521 3.69631 58.0356 6.08393 60.2783 8.09987V8.10617Z" fill="#F8E56C" stroke="#714E44" stroke-width="2" stroke-linecap="round" stroke-linejoin="round"/>
<path d="M42.5695 17.1719C43.5964 14.5448 42.7648 12.3777 40.604 10.324C43.7602 11.0673 45.6942 9.4609 47.4708 7.46387C47.0676 8.74273 46.8345 9.99638 47.1369 11.3256C47.3763 12.3651 47.874 13.2219 48.6047 13.9716C48.7181 14.0912 48.9134 14.1857 48.8126 14.3999C48.7433 14.5448 48.5921 14.4944 48.4787 14.4755C46.0281 14.1039 44.3335 15.3575 42.8467 17.0648C42.79 17.1341 42.7522 17.2474 42.5695 17.1782V17.1719Z" fill="#F8E56C" stroke="#714E44" stroke-width="2" stroke-linecap="round" stroke-linejoin="round"/>
<path d="M62.3635 20.6109C59.5727 19.9683 57.708 21.3291 55.9944 23.1686C56.3346 21.9717 56.4417 20.7873 56.1078 19.5966C55.774 18.4123 54.9991 17.4925 54.01 16.4468C57.1284 17.0578 59.0813 15.5144 60.8453 13.4229C59.7869 16.1318 60.1397 18.5572 62.3635 20.6046V20.6109Z" fill="#F8E56C" stroke="#714E44" stroke-width="2" stroke-linecap="round" stroke-linejoin="round"/>
<path d="M16.4632 36.909C17.7232 38.213 19.7076 38.5721 21.4149 38.0618C23.2481 37.52 24.6593 36.0963 25.6546 34.5213C26.0893 33.8347 24.9995 33.1984 24.5648 33.8851C23.771 35.1513 22.6496 36.342 21.1944 36.8145C19.8777 37.2428 18.3406 37.0413 17.3578 36.0207C16.7908 35.4348 15.9026 36.3294 16.4695 36.909H16.4632Z" fill="#714E44"/>
<path d="M24.2813 35.0063C25.0813 36.4364 26.5933 37.2679 28.1556 37.5955C29.718 37.9231 31.6268 38.005 32.6348 36.6002C32.8364 36.323 32.6852 35.9009 32.408 35.7371C32.093 35.5544 31.7465 35.6867 31.5449 35.9639C31.2425 36.386 30.6378 36.4993 30.1464 36.5245C29.5164 36.556 28.8864 36.4805 28.2753 36.3356C27.0973 36.0521 25.9696 35.4599 25.3648 34.37C24.9679 33.6644 23.8844 34.2944 24.275 35.0063H24.2813Z" fill="#714E44"/>
<path d="M21.1819 38.1749C22.1395 39.1703 23.5065 39.7561 24.8862 39.7246C26.2659 39.6931 27.5447 39.0947 28.4582 38.0993C29.0063 37.5008 28.118 36.6063 27.5699 37.211C26.0958 38.8238 23.5947 38.8679 22.0702 37.2866C21.5095 36.7007 20.6149 37.5953 21.1819 38.1749Z" fill="#714E44"/>
<path d="M13.011 58.3096C15.386 58.2529 17.8303 58.5868 20.0542 59.4499C20.9487 59.7964 21.9756 60.4263 22.1268 61.4658C22.2654 62.4423 21.459 63.2486 20.6905 63.7022C19.9912 64.1117 20.6212 65.2016 21.3267 64.7921C22.3662 64.1873 23.2608 63.1919 23.3868 61.9572C23.5254 60.6342 22.656 59.4625 21.5724 58.7947C20.3692 58.0576 18.8761 57.6985 17.5028 57.4339C16.0286 57.1441 14.523 57.0181 13.0173 57.0496C12.2109 57.0685 12.2046 58.3285 13.0173 58.3096H13.011Z" fill="#714E44"/>
<path d="M68.4555 24.706C67.3152 26.1864 68.5752 27.8811 70.1816 28.845C71.7881 29.8088 73.7284 29.9978 75.442 30.7412C78.0186 31.8689 79.9715 34.3384 80.4566 37.1103C80.9417 39.8822 79.9463 42.8746 77.8863 44.796L78.2265 48.1916C80.8976 46.3836 82.9828 43.6873 83.9341 40.6004C84.8854 37.5135 84.6712 34.0675 83.2474 31.1759C82.5859 29.834 81.6788 28.6182 80.7086 27.4716C79.1462 25.6195 77.3319 23.8618 75.0451 23.0806C72.7582 22.2995 69.8981 22.7531 68.4555 24.6997" fill="#714E44"/>
<path d="M67.6365 24.2337C66.1623 26.3567 67.9263 28.6498 69.8162 29.7271C72.0022 30.9807 74.6923 30.987 76.7082 32.5998C78.4343 33.9794 79.5746 36.0899 79.6313 38.3137C79.6628 39.5107 79.4171 40.7202 78.9068 41.8038C78.6674 42.3078 78.3776 42.8055 78.0374 43.2464C77.6973 43.6874 77.0421 44.1095 76.9602 44.6765C76.8783 45.2435 77.0484 45.8735 77.1051 46.4215L77.2815 48.1981C77.3445 48.847 78.0563 49.458 78.7052 49.0171C83.3356 45.8294 86.1012 40.4304 85.3137 34.7732C84.8979 31.806 83.449 29.3113 81.559 27.0308C79.8455 24.9644 77.8043 22.9863 75.1899 22.1484C72.5755 21.3106 69.4886 21.8649 67.7877 24.0447C67.0443 24.9896 68.3736 26.3378 69.1232 25.3802C70.3895 23.7612 72.5566 23.358 74.4781 23.9061C76.6515 24.5297 78.3587 26.1992 79.7951 27.8686C81.4771 29.8153 82.8568 31.9257 83.3608 34.4834C83.8207 36.827 83.5372 39.3343 82.6048 41.5266C81.5968 43.8953 79.8707 45.9302 77.754 47.3854L79.1777 48.2044C79.0643 47.0704 78.9509 45.9428 78.8375 44.8088L78.5603 45.4766C82.0252 42.144 82.4851 36.6506 79.5494 32.8392C78.0752 30.9177 76.0908 29.8531 73.7977 29.1916C72.5755 28.8388 71.2967 28.5364 70.2509 27.7678C69.4067 27.1505 68.5688 26.1992 69.2744 25.1912C69.98 24.1833 68.3358 23.2446 67.6428 24.24L67.6365 24.2337Z" fill="#714E44"/>
<path d="M77.7098 31.8753C77.7098 31.8753 84.438 36.745 78.3713 44.7332C79.7447 45.8734 80.3053 46.642 80.3053 46.642C80.3053 46.642 88.199 38.3011 81.3511 28.9963C80.488 27.7678 79.6124 26.7725 79.6124 26.7725L76.4373 30.9744L77.7098 31.8753Z" fill="#FDFDFD"/>
</svg>
