
<svg width="104" height="79" viewBox="0 0 104 79" fill="none" xmlns="http://www.w3.org/2000/svg">
<path d="M57.9901 7.52778C59.1704 8.3625 60.8309 9.33185 61.9528 10.18C66.0815 13.2945 68.5946 16.5706 71.8168 20.7038C73.8677 23.3336 75.3262 26.3538 75.6942 29.6747C75.9635 32.125 77.4759 33.1438 79.3742 33.974C80.2672 34.3644 81.3308 34.71 81.5777 35.6434C82.1072 37.6135 83.7318 38.2598 85.2217 39.1394C90.7057 42.375 96.1852 45.6286 101.669 48.8733C102.046 49.0976 102.432 49.3086 102.8 49.5554C103.936 50.3138 104.384 51.328 103.621 52.5487C102.881 53.729 101.804 53.922 100.583 53.2129C96.2795 50.7043 91.9937 48.1732 87.6675 45.7094C86.3032 44.933 84.8088 43.129 83.5343 43.8335C82.538 44.3855 83.2202 46.6832 83.2157 48.2046C83.1843 57.1307 83.2067 66.0613 83.1977 74.9874C83.1977 77.8461 82.7131 78.3352 79.8948 78.3352C60.7635 78.3397 41.6323 78.3397 22.5056 78.3352C19.7412 78.3352 19.261 77.8281 19.261 74.938C19.2565 65.6439 19.261 56.3498 19.261 47.0557C19.261 46.2704 19.261 45.485 19.261 44.2733C14.7553 46.6788 10.6984 48.8463 6.63701 51.0094C5.53751 51.5973 4.44699 52.1942 3.33404 52.7462C2.1403 53.343 1.00042 53.3027 0.300329 52.0326C-0.399757 50.7536 0.197112 49.8022 1.337 49.0976C5.81575 46.3153 10.3035 43.5463 14.7643 40.737C16.6761 39.5298 18.9872 38.7489 19.4001 35.971C19.5392 35.0466 20.5804 34.508 21.5408 34.2567C23.4615 33.7541 24.0359 32.5559 24.1751 30.5902C24.5835 24.9222 27.119 20.2191 31.5529 16.6424C33.1505 15.3544 34.7527 14.1113 36.072 12.5226C36.8709 11.5578 40.8425 7.62651 41.9779 7.09247C41.9779 7.09247 51.3303 2.79771 57.9991 7.53227L57.9901 7.52778ZM44.0467 7.4829C40.5643 8.30416 36.3548 13.6984 35.0847 17.0104C33.33 21.6058 32.3248 26.484 28.8692 30.312C27.6665 31.6449 28.416 32.9777 29.9014 33.6239C31.5619 34.3465 33.0473 35.078 33.6352 36.9987C33.9134 37.9142 34.9007 37.5283 35.5739 37.5328C40.5553 37.5597 45.5412 37.5462 50.5225 37.5462C50.5225 37.5328 50.5225 37.5193 50.5225 37.5058C55.0641 37.5058 59.6102 37.4834 64.1518 37.5193C65.8885 37.5328 67.6432 37.8245 68.294 35.5178C68.4196 35.0645 69.1152 34.5664 69.6268 34.4632C72.4047 33.9112 71.754 32.2103 70.9507 30.5678C70.4122 29.4593 69.7031 28.4047 68.9133 27.4578C67.5176 25.7794 66.5617 23.9619 66.3283 21.7629C65.8616 17.3828 63.0388 12.8592 60.2475 10.5525C57.9453 8.64971 56.213 5.58459 47.7716 6.46867M1.80372 50.9241C1.90245 51.0857 2.00118 51.2518 2.09991 51.4133C7.61085 48.4783 13.1263 45.5478 18.6282 42.5994C19.3283 42.2224 19.4719 41.4191 19.1309 40.8806C18.5834 40.01 17.9461 40.8582 17.4883 41.1364C13.6154 43.497 9.77842 45.9114 5.93692 48.3168C4.5547 49.1784 3.18145 50.0535 1.80372 50.9241ZM26.1362 37.5552C27.5229 37.5552 28.9141 37.5776 30.3008 37.5417C30.7541 37.5328 31.4317 37.7841 31.5394 37.0436C31.6068 36.5858 31.2432 36.1371 30.8304 36.0428C29.4975 35.7377 28.5551 34.8222 27.4691 34.1131C26.769 33.6554 25.8086 33.5432 25.1938 34.1266C24.1661 35.1094 23.0352 35.7736 21.6664 36.1146C21.2356 36.2223 20.8631 36.6083 20.9215 37.0795C20.9978 37.6764 21.5677 37.5417 21.9671 37.5462C23.3538 37.5642 24.745 37.5552 26.1317 37.5552H26.1362ZM74.8685 37.5148C76.2507 37.5148 77.6329 37.5283 79.0107 37.5058C79.4101 37.4969 79.971 37.6988 80.1595 37.2007C80.3839 36.6083 79.8858 36.1281 79.4415 36.0428C78.1535 35.8005 77.2829 34.9299 76.2821 34.2343C75.5776 33.7496 74.6486 33.5746 74.0203 34.0862C72.8894 35.0062 71.7764 35.8364 70.3269 36.1864C70.0621 36.2493 69.7166 36.716 69.7255 36.9897C69.739 37.5911 70.3179 37.4969 70.7263 37.5013C72.1085 37.5193 73.4863 37.5058 74.8685 37.5103V37.5148ZM101.817 51.9159C101.952 51.6871 102.087 51.4582 102.221 51.2293C95.9653 47.5404 89.7139 43.856 83.458 40.1671C83.3144 40.4094 83.1753 40.6472 83.0317 40.8896C89.2921 44.565 95.5569 48.2405 101.817 51.9159Z" fill="#724F44"/>
<path d="M1.80371 50.9244C3.18144 50.0538 4.55469 49.1787 5.93691 48.317C9.7829 45.9116 13.6199 43.4972 17.4883 41.1366C17.9461 40.8584 18.5833 40.0102 19.1308 40.8808C19.4719 41.4239 19.3328 42.2227 18.6282 42.5996C13.1263 45.5481 7.61084 48.4786 2.0999 51.4136C2.00117 51.252 1.90244 51.0859 1.80371 50.9244Z" fill="#ED6C02"/>
<path d="M26.1362 37.5552C24.7495 37.5552 23.3583 37.5642 21.9716 37.5462C21.5677 37.5417 20.9978 37.6764 20.926 37.0795C20.8676 36.6083 21.2401 36.2223 21.6709 36.1146C23.0397 35.7691 24.1661 35.1049 25.1983 34.1266C25.8131 33.5431 26.7735 33.6553 27.4736 34.1131C28.5596 34.8222 29.502 35.7376 30.8349 36.0428C31.2478 36.1371 31.6113 36.5858 31.5439 37.0436C31.4318 37.7841 30.7586 37.5327 30.3053 37.5417C28.9186 37.5776 27.5319 37.5552 26.1407 37.5552H26.1362Z" fill="#FDFDFD"/>
<path d="M74.873 37.5146C73.4907 37.5146 72.1085 37.5236 70.7308 37.5056C70.3224 37.5011 69.7435 37.5998 69.73 36.994C69.7255 36.7203 70.0711 36.2535 70.3314 36.1907C71.7809 35.8407 72.8939 35.0104 74.0248 34.0904C74.6576 33.5788 75.5865 33.7539 76.2866 34.2385C77.2874 34.9296 78.158 35.8003 79.446 36.0471C79.8902 36.1324 80.3884 36.6125 80.164 37.2049C79.9755 37.7031 79.4145 37.5011 79.0151 37.5101C77.6329 37.537 76.2552 37.5191 74.873 37.5191V37.5146Z" fill="#FDFDFD"/>
<path d="M101.817 51.9159C95.557 48.2404 89.2921 44.565 83.0317 40.8895C83.1753 40.6472 83.3145 40.4093 83.4581 40.167C89.714 43.8559 95.9654 47.5403 102.221 51.2293C102.087 51.4581 101.952 51.687 101.817 51.9159Z" fill="#ED6C02"/>
<path d="M53.13 21.8168C53.13 22.8848 50.5675 25.1152 49.634 25.0614C48.7095 25.0075 46.5913 22.9477 46.6048 22.1129C46.6093 21.7001 46.8651 21.4577 47.1703 21.2378C48.0723 20.5961 51.9317 20.623 52.735 21.3052C52.937 21.4757 53.0671 21.7315 53.13 21.8168Z" fill="#724F44"/>
<path d="M43.185 19.8727C42.4176 19.8054 41.9958 19.379 41.9689 18.6251C41.9419 17.8397 42.4176 17.3775 43.1402 17.3461C43.9839 17.3147 44.5269 17.8308 44.473 18.6879C44.4281 19.406 43.9614 19.8547 43.1805 19.8727H43.185Z" fill="#724F44"/>
<path d="M57.9497 18.7286C57.8375 19.4242 57.4157 19.8685 56.6573 19.8415C55.7732 19.8101 55.3379 19.2357 55.4366 18.4099C55.5219 17.6829 56.0784 17.2476 56.8143 17.3419C57.5189 17.4361 57.9677 17.8938 57.9497 18.7241V18.7286Z" fill="#724F44"/>
<path d="M80.1435 2.62033L77.5735 1L72.0112 9.82245L74.5813 11.4428L80.1435 2.62033Z" fill="#F8E468" stroke="#714E44" stroke-width="2" stroke-linejoin="round"/>
<path d="M87.2655 10.163L85.469 7.71289L77.0582 13.8799L78.8547 16.3301L87.2655 10.163Z" fill="#F8E468" stroke="#714E44" stroke-width="2" stroke-linejoin="round"/>
<path d="M48.0678 23.8898C47.2825 24.9399 46.6048 26.0619 46.0394 27.2421C45.7342 27.8839 46.1112 28.5301 46.8157 28.593C48.7096 28.7545 50.6034 28.8308 52.5062 28.8129C53.1614 28.8084 53.6595 28.0455 53.2826 27.462C52.4209 26.1337 51.5638 24.8008 50.7021 23.4725C50.4463 23.0775 49.8943 22.8801 49.4725 23.1493C49.0776 23.4051 48.8756 23.9571 49.1494 24.379C50.011 25.7073 50.8682 27.0402 51.7298 28.3686L52.5062 27.0178C50.6079 27.0312 48.7096 26.9594 46.8157 26.7979L47.5921 28.1487C48.1576 26.9684 48.8352 25.8465 49.6206 24.7963C49.9033 24.4194 49.6924 23.7776 49.2975 23.5667C48.8262 23.3199 48.3685 23.4859 48.0678 23.8898Z" fill="#714E44"/>
<path d="M81.1828 41.0287C81.8515 39.9337 80.4334 39.8619 78.6607 39.8664C60.1129 39.9068 41.5651 39.9337 23.0173 39.9651C20.6568 39.7497 21.0023 40.553 21.0023 41.1633C21.0158 52.4455 21.0786 63.7232 21.0472 75.0053C21.0472 76.0914 21.6755 76.5267 24.1752 76.5222C42.1126 76.4818 60.0546 76.4908 77.9921 76.5177C80.2673 76.5177 81.3309 76.2619 81.322 75.0816C81.2187 63.7321 81.2143 52.3827 81.1784 41.0332L81.1828 41.0287Z" fill="#ED6C02"/>
<path d="M51.9945 67.1063C57.0953 67.1063 61.2303 62.9713 61.2303 57.8705C61.2303 52.7697 57.0953 48.6348 51.9945 48.6348C46.8938 48.6348 42.7588 52.7697 42.7588 57.8705C42.7588 62.9713 46.8938 67.1063 51.9945 67.1063Z" fill="#F8E468" stroke="#714E44" stroke-width="2" stroke-linejoin="round"/>
<path d="M50.8726 53.8582V57.8747C50.8726 58.4626 51.3886 59.0236 51.9945 58.9967C52.6003 58.9697 53.1164 58.503 53.1164 57.8747V53.8582C53.1164 53.2703 52.6003 52.7094 51.9945 52.7363C51.3886 52.7632 50.8726 53.2299 50.8726 53.8582Z" fill="#714E44"/>
<path d="M51.9944 62.3445C53.4395 62.3445 53.4395 60.1006 51.9944 60.1006C50.5494 60.1006 50.5494 62.3445 51.9944 62.3445Z" fill="#714E44"/>
</svg>
