<svg width="36" height="36" viewBox="0 0 36 36" fill="none" xmlns="http://www.w3.org/2000/svg">
<rect width="36" height="36" rx="18" fill="#00B0B8"/>
<path d="M22.0001 17.6V9C22.0001 8.4 21.6001 8 21.0001 8H15.0001C14.7348 8 14.4805 8.10536 14.293 8.29289C14.1054 8.48043 14.0001 8.73478 14.0001 9V17.6C13.2519 18.2693 12.6836 19.1156 12.3473 20.0615C12.0109 21.0073 11.9173 22.0224 12.0749 23.0138C12.2325 24.0052 12.6364 24.9412 13.2494 25.7361C13.8625 26.531 14.6652 27.1594 15.5841 27.5636C16.5029 27.9679 17.5085 28.1352 18.5087 28.0502C19.509 27.9652 20.4719 27.6305 21.3093 27.0769C22.1467 26.5233 22.8318 25.7685 23.3019 24.8815C23.772 23.9945 24.0121 23.0038 24.0001 22C23.99 21.168 23.807 20.3472 23.4627 19.5897C23.1184 18.8322 22.6203 18.1546 22.0001 17.6ZM18.0001 26.1C16.9392 26.1 15.9218 25.6786 15.1716 24.9284C14.4215 24.1783 14.0001 23.1609 14.0001 22.1C14.0001 21.479 14.1446 20.8666 14.4224 20.3111C14.7001 19.7557 15.1033 19.2726 15.6001 18.9C15.9001 18.7 16.0001 18.4 16.0001 18.1V10H20.0001V18C20.0001 18.4 20.1001 18.7 20.4001 18.9C20.8968 19.2726 21.3001 19.7557 21.5778 20.3111C21.8555 20.8666 22.0001 21.479 22.0001 22.1C22.0001 23.1609 21.5786 24.1783 20.8285 24.9284C20.0783 25.6786 19.0609 26.1 18.0001 26.1Z" fill="white"/>
<path d="M18.7261 19.679V13H17.2261V19.694C16.2271 20.021 15.5001 20.95 15.5001 22.059C15.5001 23.439 16.6191 24.559 18.0001 24.559C19.3801 24.559 20.5001 23.439 20.5001 22.059C20.5001 20.933 19.7501 19.991 18.7261 19.679Z" fill="white"/>
</svg>
