<svg width="36" height="36" viewBox="0 0 36 36" fill="none" xmlns="http://www.w3.org/2000/svg">
<rect width="36" height="36" rx="18" fill="#FAD285"/>
<path d="M18 9.2002C15.666 9.2002 13.4277 10.1273 11.7774 11.7777C10.1271 13.428 9.19995 15.6663 9.19995 18.0002C9.19995 20.3341 10.1271 22.5724 11.7774 24.2227C13.4277 25.8731 15.666 26.8002 18 26.8002C20.3339 26.8002 22.5722 25.8731 24.2225 24.2227C25.8728 22.5724 26.7999 20.3341 26.7999 18.0002C26.7999 15.6663 25.8728 13.428 24.2225 11.7777C22.5722 10.1273 20.3339 9.2002 18 9.2002ZM12.6 13.2002C13.6 12.2002 15.2 11.9002 16 12.8002C16.9 13.6002 16.7 15.1002 15.6 16.2002C14.6 17.2002 13 17.5002 12.1 16.7002C11.3 15.8002 11.5 14.3002 12.6 13.2002ZM23 23.0002C20.5 25.4002 15.6 25.9002 13.2 23.6002C10.6 21.1002 11 18.6002 11.9 18.6002C13.1 18.6002 14.5 19.5002 16.9 17.1002C17.5072 16.5644 17.9374 15.8568 18.1338 15.0712C18.3302 14.2855 18.2836 13.4587 18 12.7002C17.4 10.7002 20.9 10.5002 23.7 13.7002C25.9 16.2002 25.5 20.4002 23 22.9002V23.0002Z" fill="white"/>
</svg>
