<svg width="36" height="36" viewBox="0 0 36 36" fill="none" xmlns="http://www.w3.org/2000/svg">
<rect width="36" height="36" rx="18" fill="#F5B63D"/>
<path d="M25 9H11C10.4696 9 9.96086 9.21071 9.58579 9.58579C9.21071 9.96086 9 10.4696 9 11V25C9 26.1 9.9 27 11 27H25C25.5304 27 26.0391 26.7893 26.4142 26.4142C26.7893 26.0391 27 25.5304 27 25V11C27 10.4696 26.7893 9.96086 26.4142 9.58579C26.0391 9.21071 25.5304 9 25 9ZM24.7 12L23.3 17C23.1 17.6 22.5 18 22 18H14C13.4 18 12.9 17.6 12.7 17L11.3 12C11.1 11.4 11.5 11 12 11H24C24.6 11 24.9 11.4 24.7 12Z" fill="white"/>
<path d="M17.5 12.5L16.5 17H19.5L18.5 12.5C18.5 12.3674 18.4473 12.2402 18.3536 12.1464C18.2598 12.0527 18.1326 12 18 12C17.8674 12 17.7402 12.0527 17.6464 12.1464C17.5527 12.2402 17.5 12.3674 17.5 12.5Z" fill="white"/>
</svg>
