<svg width="36" height="36" viewBox="0 0 36 36" fill="none" xmlns="http://www.w3.org/2000/svg">
<rect width="36" height="36" rx="18" fill="#F5BBA3"/>
<g clip-path="url(#clip0_10546_8214)">
<path d="M24.2001 24.8998C25.4001 24.2998 26.2001 23.3998 26.2001 22.2998C26.2001 21.2998 25.7001 20.3998 24.9001 19.9998C23.9001 19.3998 22.8001 19.5998 21.7001 20.2998C21.5885 20.3852 21.4947 20.4917 21.4243 20.6132C21.3538 20.7348 21.308 20.8691 21.2894 21.0084C21.2708 21.1477 21.2799 21.2893 21.316 21.425C21.3522 21.5608 21.4147 21.6882 21.5001 21.7998C21.5854 21.9114 21.6919 22.0051 21.8135 22.0756C21.9351 22.1461 22.0694 22.1919 22.2087 22.2105C22.3479 22.229 22.4895 22.22 22.6253 22.1838C22.7611 22.1477 22.8885 22.0852 23.0001 21.9998C23.4001 21.7998 23.8001 21.6998 24.0001 21.7998C24.2001 21.8998 24.3001 22.0998 24.3001 22.2998C24.3001 22.5998 24.0001 22.8998 23.5001 23.0998C21.4001 24.0998 21.3001 25.5998 21.3001 27.1998C21.3001 27.6998 21.8001 28.1998 22.3001 28.1998H25.0001C25.2653 28.1998 25.5196 28.0944 25.7072 27.9069C25.8947 27.7194 26.0001 27.465 26.0001 27.1998C26.0001 26.9346 25.8947 26.6802 25.7072 26.4927C25.5196 26.3052 25.2653 26.1998 25.0001 26.1998H23.2001C23.3001 25.3998 23.6001 25.1998 24.2001 24.9998V24.8998Z" fill="white"/>
<path d="M17.9999 23C14.7999 23 11.9999 20 11.9999 16.5C11.8999 12.9 14.6999 10 18.0999 10C21.4999 10 24.1999 12.9 24.1999 16.5C24.1999 16.7652 24.3052 17.0196 24.4928 17.2071C24.6803 17.3946 24.9347 17.5 25.1999 17.5C25.4651 17.5 25.7195 17.3946 25.907 17.2071C26.0945 17.0196 26.1999 16.7652 26.1999 16.5C26.1999 11.8 22.5999 8 18.0999 8C17.0013 8.01292 15.9163 8.2438 14.9076 8.67927C13.8989 9.11474 12.9868 9.74612 12.224 10.5368C11.4612 11.3275 10.863 12.2617 10.4641 13.2854C10.0651 14.309 9.87334 15.4017 9.89988 16.5C9.89988 21.2 13.5999 25 18.0999 25C18.3651 25 18.6195 24.8946 18.807 24.7071C18.9945 24.5196 19.0999 24.2652 19.0999 24C19.0999 23.7348 18.9945 23.4804 18.807 23.2929C18.6195 23.1054 18.3651 23 18.0999 23H17.9999Z" fill="white"/>
</g>
<defs>
<clipPath id="clip0_10546_8214">
<rect width="24" height="24" fill="white" transform="translate(6 6)"/>
</clipPath>
</defs>
</svg>
