<svg width="36" height="36" viewBox="0 0 36 36" fill="none" xmlns="http://www.w3.org/2000/svg">
<rect width="36" height="36" rx="18" fill="#F09771"/>
<g clip-path="url(#clip0_10546_5763)">
<path d="M25 8H14C13.651 8.00211 13.3086 8.09552 13.0068 8.27095C12.7051 8.44638 12.4545 8.69772 12.28 9H11C10.4696 9 9.96086 9.21071 9.58579 9.58579C9.21071 9.96086 9 10.4696 9 11V20C9 21.1 9.9 22 11 22H12.28C12.4545 22.3023 12.7051 22.5536 13.0068 22.7291C13.3086 22.9045 13.651 22.9979 14 23H23.1V24.99H18.58C18.06 24.39 17.1 23.99 16 23.99C14.9 23.99 13.94 24.39 13.42 24.99H13C12.7348 24.99 12.4804 25.0954 12.2929 25.2829C12.1054 25.4704 12 25.7248 12 25.99C12 26.2552 12.1054 26.5096 12.2929 26.6971C12.4804 26.8846 12.7348 26.99 13 26.99H13.4C13.93 27.59 14.89 27.99 16 27.99C17.11 27.99 18.07 27.59 18.6 26.99H23.34C24.31 26.99 25.1 26.19 25.1 25.19V23C25.6129 22.9743 26.0963 22.7523 26.45 22.38C26.8037 22.0077 27.0006 21.5136 27 21V10C27 9.46957 26.7893 8.96086 26.4142 8.58579C26.0391 8.21071 25.5304 8 25 8ZM12 20H11V11H12V20ZM25 21H14V10H25V21Z" fill="white"/>
<path d="M19.5 19C19.9596 19 20.4148 18.9095 20.8394 18.7336C21.264 18.5577 21.6499 18.2999 21.9749 17.9749C22.2999 17.6499 22.5577 17.264 22.7336 16.8394C22.9095 16.4148 23 15.9596 23 15.5C23 15.0404 22.9095 14.5852 22.7336 14.1606C22.5577 13.736 22.2999 13.3501 21.9749 13.0251C21.6499 12.7001 21.264 12.4423 20.8394 12.2664C20.4148 12.0905 19.9596 12 19.5 12C18.5717 12 17.6815 12.3687 17.0251 13.0251C16.3687 13.6815 16 14.5717 16 15.5C16 16.4283 16.3687 17.3185 17.0251 17.9749C17.6815 18.6313 18.5717 19 19.5 19ZM18.5 15.5C18.5 15.2348 18.6054 14.9804 18.7929 14.7929C18.9804 14.6054 19.2348 14.5 19.5 14.5C19.59 14.5 19.66 14.53 19.74 14.55L20.9 13.4L21.6 14.1L20.45 15.26C20.47 15.34 20.5 15.41 20.5 15.5C20.5 15.7652 20.3946 16.0196 20.2071 16.2071C20.0196 16.3946 19.7652 16.5 19.5 16.5C19.41 16.5 19.34 16.47 19.26 16.45L18.6 17.1L17.9 16.4L18.55 15.74C18.53 15.66 18.5 15.59 18.5 15.5Z" fill="white"/>
</g>
<defs>
<clipPath id="clip0_10546_5763">
<rect width="24" height="24" fill="white" transform="translate(6 6)"/>
</clipPath>
</defs>
</svg>
