<svg width="36" height="36" viewBox="0 0 36 36" fill="none" xmlns="http://www.w3.org/2000/svg">
<rect width="36" height="36" rx="18" fill="#97C626"/>
<path fill-rule="evenodd" clip-rule="evenodd" d="M18.0226 28C17.9317 28 17.8408 27.9868 17.7519 27.9625C15.1 27.2038 6.41599 20.5785 8.25286 13.868C9.06892 11.1923 10.9408 9.41625 13.2671 9.08661C15.031 8.83507 16.7431 9.47407 18.0316 10.82C19.375 9.42842 21.131 8.78232 22.9239 9.06531C25.1723 9.42031 26.9623 11.1791 27.7104 13.7726C28.2328 15.4553 28.045 17.422 27.175 19.2893C27.0092 19.6443 26.6576 19.8695 26.2721 19.8695H22.828C22.4435 19.8695 22.0939 19.6453 21.9271 19.2934L21.1779 17.704L18.9066 22.0218C18.7308 22.3565 18.3952 22.5573 18.0116 22.5584C17.638 22.5533 17.2984 22.3362 17.1316 21.9975L15.3247 18.3237H13.0064C12.455 18.3237 12.0075 17.8693 12.0075 17.3094C12.0075 16.7495 12.455 16.2951 13.0064 16.2951H15.941C16.3195 16.2951 16.6651 16.5122 16.835 16.856L18.0535 19.3339L20.3439 14.9796C20.5207 14.6439 20.8393 14.4562 21.2469 14.4441C21.6224 14.4522 21.963 14.6753 22.1258 15.0202L23.4553 17.8409H25.6088C26.0533 16.6258 26.1232 15.4097 25.7966 14.3629C25.2662 12.525 24.0786 11.3008 22.6153 11.0695C21.2049 10.8494 19.8005 11.5686 18.8496 12.9987C18.6628 13.2807 18.3552 13.4267 18.0146 13.446C17.68 13.444 17.3683 13.2705 17.1855 12.9855C16.2986 11.6041 14.9351 10.8981 13.5418 11.0949C12.0035 11.314 10.742 12.5636 10.1687 14.44C8.8272 19.3421 15.5914 24.8892 17.9776 25.8954C19.9753 24.9582 21.7693 23.5686 23.1826 21.8595C23.5362 21.4315 24.1675 21.3757 24.59 21.7358C25.0125 22.0958 25.0674 22.7359 24.7119 23.1649C23.0178 25.2138 20.8403 26.8569 18.4181 27.9168C18.2923 27.9726 18.1584 28 18.0226 28Z" fill="white"/>
</svg>
