<svg width="36" height="36" viewBox="0 0 36 36" fill="none" xmlns="http://www.w3.org/2000/svg">
<rect width="36" height="36" rx="18" fill="#18A5D3"/>
<path d="M23.3 8H12.3C12.3 8 10.5 8 10.5 9.8V18.5C10.5 18.5 10.5 24.3 15.8 25.5V23H19.8V25.5C22 24.9 25.1 23.3 25.1 18.5V9.9C25.1 9.9 25.1 8 23.3 8ZM23.1 18H12.5V10H23V18H23.1Z" fill="white"/>
<path d="M19.8 15C19.8 15.5304 19.5893 16.0391 19.2142 16.4142C18.8391 16.7893 18.3304 17 17.8 17C17.2696 17 16.7609 16.7893 16.3858 16.4142C16.0107 16.0391 15.8 15.5304 15.8 15C15.8 13.9 17.8 11 17.8 11C17.8 11 19.8 13.9 19.8 15ZM16.8 27.5C16.8 27.8 17 28 17.3 28H18.3C18.6 28 18.8 27.8 18.8 27.5V24H16.8V27.5Z" fill="white"/>
</svg>
